<!-- <svg width="24" height="24" viewBox="0 0 24 24" fill="none" xmlns="http://www.w3.org/2000/svg">
<path fill-rule="evenodd" clip-rule="evenodd" d="M12 1C5.92487 1 1 5.92487 1 12C1 18.0751 5.92487 23 12 23C18.0751 23 23 18.0751 23 12C23 5.92487 18.0751 1 12 1ZM14 6C14.5523 6 15 6.44772 15 7V17C15 17.5523 14.5523 18 14 18C13.4477 18 13 17.5523 13 17V7C13 6.44772 13.4477 6 14 6ZM11 9C11 8.44772 10.5523 8 10 8C9.44771 8 9 8.44772 9 9V15C9 15.5523 9.44772 16 10 16C10.5523 16 11 15.5523 11 15V9ZM7 11C7 10.4477 6.55228 10 6 10C5.44772 10 5 10.4477 5 11V13C5 13.5523 5.44772 14 6 14C6.55228 14 7 13.5523 7 13V11ZM19 11C19 10.4477 18.5523 10 18 10C17.4477 10 17 10.4477 17 11V13C17 13.5523 17.4477 14 18 14C18.5523 14 19 13.5523 19 13V11Z" fill="white"/>
</svg> -->
<svg xmlns="http://www.w3.org/2000/svg" width="16" height="16" fill="currentColor" class="bi bi-snow" viewBox="0 0 16 16">
  <path d="M8 16a.5.5 0 0 1-.5-.5v-1.293l-.646.647a.5.5 0 0 1-.707-.708L7.5 12.793V8.866l-3.4 1.963-.496 1.85a.5.5 0 1 1-.966-.26l.237-.882-1.12.646a.5.5 0 0 1-.5-.866l1.12-.646-.884-.237a.5.5 0 1 1 .26-.966l1.848.495L7 8 3.6 6.037l-1.85.495a.5.5 0 0 1-.258-.966l.883-.237-1.12-.646a.5.5 0 1 1 .5-.866l1.12.646-.237-.883a.5.5 0 1 1 .966-.258l.495 1.849L7.5 7.134V3.207L6.147 1.854a.5.5 0 1 1 .707-.708l.646.647V.5a.5.5 0 1 1 1 0v1.293l.647-.647a.5.5 0 1 1 .707.708L8.5 3.207v3.927l3.4-1.963.496-1.85a.5.5 0 1 1 .966.26l-.236.882 1.12-.646a.5.5 0 0 1 .5.866l-1.12.646.883.237a.5.5 0 1 1-.26.966l-1.848-.495L9 8l3.4 1.963 1.849-.495a.5.5 0 0 1 .259.966l-.883.237 1.12.646a.5.5 0 0 1-.5.866l-1.12-.646.236.883a.5.5 0 1 1-.966.258l-.495-1.849-3.4-1.963v3.927l1.353 1.353a.5.5 0 0 1-.707.708l-.647-.647V15.5a.5.5 0 0 1-.5.5z"/>
</svg>
